<svg width="204" height="104" viewBox="0 0 204 104" fill="none" xmlns="http://www.w3.org/2000/svg">
<path d="M91.9009 4.35854e-06L33.0807 0.0154334C30.7181 0.0154334 28.9969 1.76718 29 4.16952L29.0094 40.7313C29.0094 43.1337 30.7322 44.8838 33.0948 44.8806L91.9151 44.8652C94.2777 44.8652 95.9989 43.1135 95.9957 40.7111L95.9863 4.14931C95.9863 1.74697 94.2635 -0.00318742 91.9009 4.35854e-06ZM60.8355 29.1079V33.4839L38.3008 33.4897V25.8518C41.8996 24.9358 47.0638 23.6218 49.4892 22.9053C54.3399 21.4716 55.5526 20.2779 55.5521 17.8516C55.5521 15.0668 53.2821 13.7151 49.6043 13.7161C46.0834 13.7161 43.1887 14.9115 43.3462 19.6848H37.8692C37.5553 14.0358 40.5269 9.30138 49.4468 9.29872C57.9743 9.29872 61.1065 12.9554 61.1076 17.5303C61.1076 21.0711 59.8965 24.0548 54.3023 25.8066C50.3906 27.0413 46.4784 27.7977 42.6054 28.5148V29.1117L60.8355 29.1079ZM88.1446 30.9698H83.9975V34.1525H79.2639V30.9698L63.9672 30.9741V23.5351C70.9692 19.8337 75.5814 13.1086 76.6005 9.72801H82.8204C79.0275 16.9691 72.2222 23.8926 68.0756 26.0023V26.8774L79.2645 26.8742V20.8279H83.9981V26.8742H88.1451L88.1446 30.9698Z" fill="black"/>
<path d="M169.635 44.8732L123.184 44.8806C109.436 44.8844 100.55 36.2075 100.547 22.7694V22.1309C100.543 8.69497 109.424 0.0111825 123.172 0.00745781L169.623 1.19867e-06C183.37 -0.00372347 192.256 8.67316 192.259 22.1112V22.7497C192.263 36.1857 183.382 44.8695 169.635 44.8732ZM123.172 1.11102C110.088 1.11422 101.635 9.36595 101.638 22.1325V22.771C101.641 35.5376 110.098 43.7845 123.183 43.7808L169.634 43.7733C182.718 43.7702 191.17 35.5184 191.167 22.7519V22.1134C191.164 9.34679 182.708 1.09984 169.623 1.10357L123.172 1.11102Z" fill="black"/>
<path d="M138.273 10.4072V14.4405H147.859V33.8232H152.754V14.4405H162.34V10.4072H138.273Z" fill="black"/>
<path d="M112.258 10.4072V14.4405H122.103V33.8232H127.13V14.4405H136.975V10.4072H112.258Z" fill="black"/>
<path d="M167.81 29.5159V10.4072H162.992V33.8232H182.505V29.5159H167.81Z" fill="black"/>
<path d="M32.6 76.5806H34.49V67.5656H37.94V65.9606H29.15V67.5656H32.6V76.5806ZM39.1313 76.5806H40.8413V72.2006C40.8413 71.0156 41.7563 70.1606 42.8663 70.1606C43.9763 70.1606 44.6363 70.9556 44.6363 72.0656V76.5806H46.3313V71.9456C46.3313 70.0556 45.1313 68.6756 43.2713 68.6756C42.3263 68.6756 41.5463 69.1256 40.9913 69.9206H40.8413V65.5106H39.1313V76.5806ZM52.0377 76.8506C53.7927 76.8506 55.2027 76.0706 55.7577 74.7506L54.3327 74.2106C53.9127 74.9906 53.0877 75.4706 52.0977 75.4706C50.7627 75.4706 49.8177 74.6156 49.6377 73.2956H56.0127C56.0277 73.1156 56.0277 72.8756 56.0277 72.6956C56.0277 70.3406 54.3477 68.6756 51.9777 68.6756C49.5927 68.6756 47.8827 70.3406 47.8827 72.6806C47.8827 75.1256 49.6077 76.8506 52.0377 76.8506ZM49.6377 72.0356C49.8477 70.8506 50.7327 70.0556 51.9327 70.0556C53.1627 70.0556 54.0777 70.8656 54.2727 72.0356H49.6377ZM63.1813 76.5806H64.6513L65.5813 73.0856H67.9213L66.9763 76.5806H68.4463L69.3613 73.0856H73.0663V71.8856H69.6763L70.2013 69.9356H73.8163V68.7206H70.5313L71.4013 65.5106H69.9313L69.0613 68.7206H66.7363L67.6063 65.5106H66.1363L65.2813 68.7206H61.8163V69.9356H64.9663L64.4413 71.8856H61.0663V73.0856H64.1263L63.1813 76.5806ZM65.8963 71.8856L66.4213 69.9356H68.7463L68.2213 71.8856H65.8963ZM77.6184 76.5806H79.4784V65.9606H77.9334L75.0234 68.1356V70.1606L77.4684 68.3156H77.6184V76.5806ZM89.8433 76.9106C92.5583 76.9106 94.1633 75.6356 94.1633 73.5956C94.1633 71.1356 91.9133 70.7156 90.0233 70.4156C88.5533 70.1906 87.2633 69.9656 87.2633 68.7506C87.2633 67.7906 88.0883 67.1456 89.5883 67.1456C91.1933 67.1456 92.1233 67.9256 92.1233 69.2606H93.8933C93.8933 67.0256 92.2283 65.6156 89.5583 65.6156C86.9183 65.6156 85.3733 66.9056 85.3733 68.8706C85.3733 71.3006 87.6683 71.7356 89.5583 72.0206C90.9983 72.2456 92.2733 72.4706 92.2733 73.7306C92.2733 74.7656 91.4033 75.3806 89.8883 75.3806C88.1033 75.3806 87.0683 74.5256 87.0683 73.1156H85.2383C85.2383 75.4406 87.0083 76.9106 89.8433 76.9106ZM95.938 76.5806H97.648V72.2006C97.648 71.0156 98.563 70.1606 99.673 70.1606C100.783 70.1606 101.443 70.9556 101.443 72.0656V76.5806H103.138V71.9456C103.138 70.0556 101.938 68.6756 100.078 68.6756C99.133 68.6756 98.353 69.1256 97.798 69.9206H97.648V65.5106H95.938V76.5806ZM108.829 76.8506C111.289 76.8506 112.984 75.2006 112.984 72.7706C112.984 70.3406 111.274 68.6756 108.829 68.6756C106.354 68.6756 104.674 70.3406 104.674 72.7706C104.674 75.2006 106.369 76.8506 108.829 76.8506ZM108.829 75.3656C107.389 75.3656 106.369 74.2856 106.369 72.7706C106.369 71.2556 107.389 70.1606 108.829 70.1606C110.254 70.1606 111.289 71.2556 111.289 72.7706C111.289 74.2856 110.254 75.3656 108.829 75.3656ZM119.069 68.6756C117.914 68.6756 117.029 69.1556 116.489 69.9956H116.339V68.9606H114.629V80.0306H116.339V75.5756H116.489C117.029 76.4006 117.959 76.8506 119.084 76.8506C121.244 76.8506 122.879 75.1556 122.879 72.7706C122.879 70.3706 121.229 68.6756 119.069 68.6756ZM118.724 70.1606C120.134 70.1606 121.169 71.2856 121.169 72.7706C121.169 74.2256 120.149 75.3656 118.724 75.3656C117.299 75.3656 116.264 74.2256 116.264 72.7706C116.264 71.3006 117.299 70.1606 118.724 70.1606ZM128.986 68.6756C127.831 68.6756 126.946 69.1556 126.406 69.9956H126.256V68.9606H124.546V80.0306H126.256V75.5756H126.406C126.946 76.4006 127.876 76.8506 129.001 76.8506C131.161 76.8506 132.796 75.1556 132.796 72.7706C132.796 70.3706 131.146 68.6756 128.986 68.6756ZM128.641 70.1606C130.051 70.1606 131.086 71.2856 131.086 72.7706C131.086 74.2256 130.066 75.3656 128.641 75.3656C127.216 75.3656 126.181 74.2256 126.181 72.7706C126.181 71.3006 127.216 70.1606 128.641 70.1606ZM135.423 67.6856C136.083 67.6856 136.533 67.2356 136.533 66.5906C136.533 65.9606 136.083 65.5106 135.423 65.5106C134.778 65.5106 134.328 65.9606 134.328 66.5906C134.328 67.2356 134.778 67.6856 135.423 67.6856ZM134.583 76.5806H136.278V68.9606H134.583V76.5806ZM138.418 76.5806H140.113V72.2006C140.113 71.0456 141.043 70.1906 142.153 70.1906C143.263 70.1906 143.908 70.9856 143.908 72.0956V76.5806H145.618V71.9606C145.618 70.0706 144.403 68.7056 142.558 68.7056C141.613 68.7056 140.818 69.1406 140.263 69.9806H140.113V68.9606H138.418V76.5806ZM151.28 80.3006C153.8 80.3006 155.405 78.8306 155.405 76.4606V68.9606H153.74V69.9506H153.59C152.96 69.1706 152.105 68.7056 150.965 68.7056C148.745 68.7056 147.155 70.3706 147.155 72.7706C147.155 75.1106 148.745 76.7306 150.965 76.7306C152.075 76.7306 152.9 76.2956 153.545 75.5306H153.695V76.4306C153.695 77.9306 152.765 78.8756 151.295 78.8756C150.14 78.8756 149.315 78.2906 148.955 77.2706L147.275 77.7356C147.755 79.3706 149.225 80.3006 151.28 80.3006ZM151.31 75.2906C149.885 75.2906 148.85 74.2256 148.85 72.7706C148.85 71.2556 149.885 70.1606 151.31 70.1606C152.735 70.1606 153.77 71.2556 153.77 72.7706C153.77 74.2256 152.735 75.2906 151.31 75.2906ZM30.29 96.5806H37.97V94.9906H32.165V91.8556H37.295V90.3706H32.165V87.5356H37.82V85.9606H30.29V96.5806ZM38.7887 96.5806H40.7087L42.6437 93.6856H42.7937L44.7437 96.5806H46.6637L43.8737 92.6206L46.5137 88.9606H44.6537L42.7937 91.5856H42.6437L40.7987 88.9606H38.9387L41.5787 92.6206L38.7887 96.5806ZM52.2429 88.6756C51.0879 88.6756 50.2029 89.1556 49.6629 89.9956H49.5129V88.9606H47.8029V100.031H49.5129V95.5756H49.6629C50.2029 96.4006 51.1329 96.8506 52.2579 96.8506C54.4179 96.8506 56.0529 95.1556 56.0529 92.7706C56.0529 90.3706 54.4029 88.6756 52.2429 88.6756ZM51.8979 90.1606C53.3079 90.1606 54.3429 91.2856 54.3429 92.7706C54.3429 94.2256 53.3229 95.3656 51.8979 95.3656C50.4729 95.3656 49.4379 94.2256 49.4379 92.7706C49.4379 91.3006 50.4729 90.1606 51.8979 90.1606ZM61.5591 96.8506C63.3141 96.8506 64.7241 96.0706 65.2791 94.7506L63.8541 94.2106C63.4341 94.9906 62.6091 95.4706 61.6191 95.4706C60.2841 95.4706 59.3391 94.6156 59.1591 93.2956H65.5341C65.5491 93.1156 65.5491 92.8756 65.5491 92.6956C65.5491 90.3406 63.8691 88.6756 61.4991 88.6756C59.1141 88.6756 57.4041 90.3406 57.4041 92.6806C57.4041 95.1256 59.1291 96.8506 61.5591 96.8506ZM59.1591 92.0356C59.3691 90.8506 60.2541 90.0556 61.4541 90.0556C62.6841 90.0556 63.5991 90.8656 63.7941 92.0356H59.1591ZM67.227 96.5806H68.922V92.5756C68.922 91.2106 69.657 90.2956 70.722 90.2956C71.007 90.2956 71.487 90.3706 71.907 90.5356V88.9906C71.682 88.8706 71.337 88.8106 71.007 88.8106C70.197 88.8106 69.387 89.2756 69.042 89.9656H68.892V88.9606H67.227V96.5806ZM74.2658 87.6856C74.9258 87.6856 75.3758 87.2356 75.3758 86.5906C75.3758 85.9606 74.9258 85.5106 74.2658 85.5106C73.6208 85.5106 73.1708 85.9606 73.1708 86.5906C73.1708 87.2356 73.6208 87.6856 74.2658 87.6856ZM73.4258 96.5806H75.1208V88.9606H73.4258V96.5806ZM81.0562 96.8506C82.8112 96.8506 84.2212 96.0706 84.7762 94.7506L83.3512 94.2106C82.9312 94.9906 82.1062 95.4706 81.1162 95.4706C79.7812 95.4706 78.8362 94.6156 78.6562 93.2956H85.0312C85.0462 93.1156 85.0462 92.8756 85.0462 92.6956C85.0462 90.3406 83.3662 88.6756 80.9962 88.6756C78.6112 88.6756 76.9012 90.3406 76.9012 92.6806C76.9012 95.1256 78.6262 96.8506 81.0562 96.8506ZM78.6562 92.0356C78.8662 90.8506 79.7512 90.0556 80.9512 90.0556C82.1812 90.0556 83.0962 90.8656 83.2912 92.0356H78.6562ZM86.7241 96.5806H88.4191V92.2006C88.4191 91.0456 89.3491 90.1906 90.4591 90.1906C91.5691 90.1906 92.2141 90.9856 92.2141 92.0956V96.5806H93.9241V91.9606C93.9241 90.0706 92.7091 88.7056 90.8641 88.7056C89.9191 88.7056 89.1241 89.1406 88.5691 89.9806H88.4191V88.9606H86.7241V96.5806ZM99.4958 96.8506C101.416 96.8506 103.006 95.6806 103.321 93.9856L101.701 93.7756C101.431 94.7356 100.561 95.3956 99.5108 95.3956C98.1608 95.3956 97.1558 94.3156 97.1558 92.7706C97.1558 91.2256 98.1758 90.1456 99.5108 90.1456C100.546 90.1456 101.446 90.8056 101.686 91.7656L103.306 91.5556C103.036 89.8606 101.461 88.6756 99.4958 88.6756C97.1408 88.6756 95.4608 90.3556 95.4608 92.7706C95.4608 95.1706 97.1408 96.8506 99.4958 96.8506ZM108.83 96.8506C110.585 96.8506 111.995 96.0706 112.55 94.7506L111.125 94.2106C110.705 94.9906 109.88 95.4706 108.89 95.4706C107.555 95.4706 106.61 94.6156 106.43 93.2956H112.805C112.82 93.1156 112.82 92.8756 112.82 92.6956C112.82 90.3406 111.14 88.6756 108.77 88.6756C106.385 88.6756 104.675 90.3406 104.675 92.6806C104.675 95.1256 106.4 96.8506 108.83 96.8506ZM106.43 92.0356C106.64 90.8506 107.525 90.0556 108.725 90.0556C109.955 90.0556 110.87 90.8656 111.065 92.0356H106.43ZM122.553 96.9106C125.268 96.9106 126.873 95.6356 126.873 93.5956C126.873 91.1356 124.623 90.7156 122.733 90.4156C121.263 90.1906 119.973 89.9656 119.973 88.7506C119.973 87.7906 120.798 87.1456 122.298 87.1456C123.903 87.1456 124.833 87.9256 124.833 89.2606H126.603C126.603 87.0256 124.938 85.6156 122.268 85.6156C119.628 85.6156 118.083 86.9056 118.083 88.8706C118.083 91.3006 120.378 91.7356 122.268 92.0206C123.708 92.2456 124.983 92.4706 124.983 93.7306C124.983 94.7656 124.113 95.3806 122.598 95.3806C120.813 95.3806 119.778 94.5256 119.778 93.1156H117.948C117.948 95.4406 119.718 96.9106 122.553 96.9106ZM132.428 96.8506C134.888 96.8506 136.583 95.2006 136.583 92.7706C136.583 90.3406 134.873 88.6756 132.428 88.6756C129.953 88.6756 128.273 90.3406 128.273 92.7706C128.273 95.2006 129.968 96.8506 132.428 96.8506ZM132.428 95.3656C130.988 95.3656 129.968 94.2856 129.968 92.7706C129.968 91.2556 130.988 90.1606 132.428 90.1606C133.853 90.1606 134.888 91.2556 134.888 92.7706C134.888 94.2856 133.853 95.3656 132.428 95.3656ZM138.228 96.5806H139.938V85.5106H138.228V96.5806ZM149.013 88.9606H147.318V93.3256C147.318 94.4956 146.388 95.3506 145.278 95.3506C144.168 95.3506 143.523 94.5556 143.523 93.4456V88.9606H141.813V93.5656C141.813 95.4556 143.028 96.8356 144.873 96.8356C145.818 96.8356 146.613 96.3856 147.168 95.5606H147.318V96.5806H149.013V88.9606ZM154 96.8506C154.405 96.8506 154.96 96.7756 155.35 96.6406V95.3656C155.08 95.4406 154.72 95.4856 154.51 95.4856C153.82 95.4856 153.4 95.0056 153.4 94.3306V90.2356H155.26V88.9606H153.4L153.415 86.5006H152.095L151.735 88.9606H150.55V90.2356H151.705V94.4056C151.705 95.8756 152.605 96.8506 154 96.8506ZM157.982 87.6856C158.642 87.6856 159.092 87.2356 159.092 86.5906C159.092 85.9606 158.642 85.5106 157.982 85.5106C157.337 85.5106 156.887 85.9606 156.887 86.5906C156.887 87.2356 157.337 87.6856 157.982 87.6856ZM157.142 96.5806H158.837V88.9606H157.142V96.5806ZM164.757 96.8506C167.217 96.8506 168.912 95.2006 168.912 92.7706C168.912 90.3406 167.202 88.6756 164.757 88.6756C162.282 88.6756 160.602 90.3406 160.602 92.7706C160.602 95.2006 162.297 96.8506 164.757 96.8506ZM164.757 95.3656C163.317 95.3656 162.297 94.2856 162.297 92.7706C162.297 91.2556 163.317 90.1606 164.757 90.1606C166.182 90.1606 167.217 91.2556 167.217 92.7706C167.217 94.2856 166.182 95.3656 164.757 95.3656ZM170.572 96.5806H172.267V92.2006C172.267 91.0456 173.197 90.1906 174.307 90.1906C175.417 90.1906 176.062 90.9856 176.062 92.0956V96.5806H177.772V91.9606C177.772 90.0706 176.557 88.7056 174.712 88.7056C173.767 88.7056 172.972 89.1406 172.417 89.9806H172.267V88.9606H170.572V96.5806ZM182.908 96.8656C184.993 96.8656 186.238 95.9656 186.238 94.4056C186.238 92.5756 184.558 92.2156 183.133 92.0506C182.038 91.9156 181.063 91.8706 181.063 91.0456C181.063 90.3706 181.723 89.9356 182.683 89.9356C183.718 89.9356 184.423 90.4456 184.438 91.2556H186.043C186.043 89.6656 184.663 88.6606 182.698 88.6606C180.778 88.6606 179.473 89.6056 179.473 91.1506C179.473 92.9806 181.228 93.2956 182.638 93.4456C183.688 93.5656 184.603 93.6556 184.603 94.4956C184.603 95.1856 183.973 95.6056 182.953 95.6056C181.693 95.6056 180.943 94.9606 180.928 94.0006H179.368C179.368 95.8006 180.673 96.8656 182.908 96.8656Z" fill="black"/>
<line x1="1" y1="4.37115e-08" x2="0.999996" y2="97" stroke="#BEBEBE" stroke-width="2"/>
</svg>
