<svg width="97" height="97" viewBox="0 0 97 97" fill="none" xmlns="http://www.w3.org/2000/svg">
<path d="M97 48.5C97 75.2858 75.2858 97 48.5 97C21.7142 97 0 75.2858 0 48.5C0 21.7142 21.7142 0 48.5 0C75.2858 0 97 21.7142 97 48.5Z" fill="#FECE33"/>
<path d="M23.668 71.2542H29.3212V25.802H23.668V71.2542Z" fill="black"/>
<path d="M39.1799 25.802H32.1699V71.2542H39.1799C42.5718 71.2542 45.0592 69.8906 45.0592 64.0386V33.0175C45.0592 27.1656 42.5718 25.802 39.1799 25.802ZM39.406 62.9023C39.406 65.459 39.293 66.1408 38.2189 66.1408H37.8231V30.9154H38.2189C39.293 30.9154 39.406 31.5972 39.406 34.1538V62.9023Z" fill="black"/>
<path d="M56.5679 71.2542H62.3907L58.8292 43.5852C59.6772 42.4489 60.186 40.7444 60.186 38.1309V32.4494C60.186 27.1656 57.6986 25.802 54.3066 25.802H47.2967V71.2542H52.9499V45.3464H53.4587L56.5679 71.2542ZM52.9499 30.9154H53.3456C54.4197 30.9154 54.5328 31.5972 54.5328 33.5857V37.5627C54.5328 39.5513 54.4197 40.2331 53.3456 40.2331H52.9499V30.9154Z" fill="black"/>
<path d="M73.3076 30.9154V25.802H63.5276V71.2542H69.1808V49.0962H73.0249V43.9829H69.1808V30.9154H73.3076Z" fill="black"/>
</svg>
